<?xml version="1.0" encoding="utf-8"?>
<!-- Generator: Adobe Illustrator 27.0.0, SVG Export Plug-In . SVG Version: 6.00 Build 0)  -->
<svg version="1.1" id="Слой_1" xmlns="http://www.w3.org/2000/svg" xmlns:xlink="http://www.w3.org/1999/xlink" x="0px" y="0px"
	 viewBox="0 50 300 100" style="enable-background:new 0 0 300 200;" xml:space="preserve">
<g>
	<path class="st0" d="M10,78.37h24.96v5.51H16.38v8.78h16.08v5.57H16.38v9.34h18.58v5.51H10V78.37z"/>
	<path class="st0" d="M52.72,113.08L37.77,85.97h7.1l7.86,14.7l7.91-14.7h7.05L52.72,113.08z"/>
	<path class="st0" d="M67.83,99.35c0-7.45,4.9-14.24,13.07-14.19c8.88,0,15.16,6.84,12.76,16.9H74.52c0.31,3.12,3.57,6.08,7.66,6.08
		c1.99,0.05,5.72-0.97,6.74-2.5l4.7,3.63c-2.76,3.06-7.15,4.34-12.05,4.34C73.29,113.59,67.83,106.34,67.83,99.35z M87.69,96.74
		c0.36-2.35-1.38-6.18-6.59-6.18c-4.34,0-6.64,3.32-6.64,6.18H87.69z"/>
	<path class="st0" d="M99.63,99.04c0-8.07,5.61-13.48,13.27-13.48c7.61,0,13.27,5.41,13.27,13.48v14.04h-6.13V99.04
		c0-4.7-2.86-7.35-7.15-7.35s-7.15,2.71-7.15,7.35v14.04h-6.13V99.04z"/>
	<path class="st0" d="M147.95,99.35c0-7.45,4.9-14.24,13.07-14.19c8.88,0,15.16,6.84,12.76,16.9h-19.14
		c0.31,3.12,3.57,6.08,7.66,6.08c1.99,0.05,5.72-0.97,6.74-2.5l4.7,3.63c-2.76,3.06-7.15,4.34-12.05,4.34
		C153.41,113.59,147.95,106.34,147.95,99.35z M167.81,96.74c0.36-2.35-1.38-6.18-6.59-6.18c-4.34,0-6.64,3.32-6.64,6.18H167.81z"/>
	<path class="st0" d="M177.55,99.24c0-7.66,6.28-13.94,13.99-13.94c7.71,0,13.99,6.28,13.99,13.94v14.19h-6.13v-4.18
		c-1.63,2.4-4.54,4.03-7.86,4.03C183.83,113.28,177.55,107,177.55,99.24z M199.4,99.24c0-4.29-3.52-7.81-7.86-7.81
		c-4.34,0-7.86,3.52-7.86,7.81c0,4.39,3.52,7.91,7.86,7.91C195.88,107.16,199.4,103.63,199.4,99.24z"/>
	<path class="st0" d="M209.65,97c0-6.64,3.93-11.69,10.72-11.64c3.27,0,6.02,1.43,7.61,3.57c1.58-2.14,4.34-3.63,7.61-3.57
		c6.79,0,10.67,5,10.67,11.64v16.08h-6.13V97c0-3.01-1.58-5.51-4.55-5.51c-2.91,0-4.54,2.5-4.54,5.51v16.08h-6.18V97
		c0-3.01-1.58-5.51-4.49-5.51c-2.96,0-4.6,2.5-4.6,5.51v16.08h-6.13V97z"/>
	<path class="st0" d="M250.59,101.54V75.81h6.13v25.63c0,3.11,1.43,5.36,4.24,5.36v6.28C254.62,113.08,250.59,108.23,250.59,101.54z
		"/>
	<path class="st0" d="M283.52,85.97l-7.86,18.84l-7.86-18.84h-6.53l10.06,24.35c1.52,3.04-1.34,8.26-6.49,7.97
		c-0.02,0-0.21,0-0.24,0c-0.39,0-0.93,0-0.93,0H147.51l0,0c-3.32,0-7.08-0.87-7.78-5.21h0v-2.45v-7.81v-6.13v-2V84.49h9.44v-6.13
		h-25.32v6.13h9.45v12.2v2.82v3.31v10.26c0,0.47,0.04,0.92,0.09,1.34c0.05,0.43,0.12,0.81,0.17,1.11c0.07,0.38,0.19,0.81,0.32,1.23
		c0.02,0.05,0.03,0.11,0.05,0.16c0.17,0.5,0.35,0.96,0.49,1.21c0.04,0.07,0.08,0.13,0.12,0.2c0.38,0.71,0.83,1.33,1.34,1.88
		c0.2,0.22,0.41,0.43,0.64,0.62c0.09,0.08,0.18,0.15,0.27,0.22c0.12,0.09,0.23,0.19,0.36,0.27c0.73,0.53,1.54,0.97,2.34,1.38
		c1.79,0.91,3.75,1.54,6.23,1.46c0.04,0,0.14,0,0.19,0c0.69,0,1.51,0,1.51,0h116.21c0,0,1.2,0,1.76,0c0.03,0,0.07,0,0.1,0
		c7.08,0.24,10.43-4.93,13.31-11.1L290,85.97H283.52z"/>
</g>
</svg>
